<svg width="1218" height="478" viewBox="0 0 1218 478" fill="none" xmlns="http://www.w3.org/2000/svg">
<ellipse cx="101.49" cy="395.385" rx="101.49" ry="395.385" transform="matrix(-0.0270765 -0.999633 -0.999633 0.0270765 1217.5 444.072)" fill="#EBFCFF"/>
<ellipse cx="169.222" cy="454.879" rx="169.222" ry="454.879" transform="matrix(-0.0270765 -0.999633 -0.999633 0.0270765 1047.04 376.415)" fill="#EBFCFF"/>
<ellipse cx="80.203" cy="454.879" rx="80.203" ry="454.879" transform="matrix(-0.0270765 -0.999633 -0.999633 0.0270765 1213.82 308.228)" fill="#EBFCFF"/>
<ellipse cx="80.203" cy="454.879" rx="80.203" ry="454.879" transform="matrix(-0.0270765 -0.999633 -0.999633 0.0270765 976.868 349.062)" fill="#EBFCFF"/>
<ellipse cx="60.8511" cy="344.568" rx="60.8511" ry="344.568" transform="matrix(-0.0270765 -0.999633 -0.999633 0.0270765 660.184 284.506)" fill="#EBFCFF"/>
<ellipse cx="60.8511" cy="344.568" rx="60.8511" ry="344.568" transform="matrix(-0.0270765 -0.999633 -0.999633 0.0270765 867 412.696)" fill="#EBFCFF"/>
<ellipse cx="41.0691" cy="265.243" rx="41.0691" ry="265.243" transform="matrix(-0.0270765 -0.999633 -0.999633 0.0270765 840.956 92.042)" fill="#EBFCFF"/>
</svg>
