<svg width="85" height="85" viewBox="0 0 85 85" fill="none" xmlns="http://www.w3.org/2000/svg">
<path d="M76.9271 32.421H76.698V31.324C76.698 14.0519 62.6459 0 45.3738 0H39.4706C22.1985 0 8.14665 14.0519 8.14665 31.324V32.421H7.91755C5.20602 32.421 3 34.627 3 37.3386V54.8371C3 57.5486 5.20602 59.7547 7.91755 59.7547H8.22717C8.85869 64.9211 13.2697 68.9363 18.604 68.9363H33.1355C33.5422 69.7583 34.3871 70.3249 35.3662 70.3249H41.7519C43.1271 70.3249 44.2421 69.2099 44.2421 67.8346V65.0574C44.2421 63.6821 43.1271 62.5671 41.7519 62.5671H35.3662C34.3871 62.5671 33.5422 63.1338 33.1355 63.9557H18.6041C16.0236 63.9557 13.8554 62.1609 13.2789 59.7545H13.3564C16.0679 59.7545 18.2739 57.5485 18.2739 54.837V52.1018L16.5196 51.7682C12.9399 51.1675 10.3444 48.1007 10.3444 44.4679V34.6996C10.3444 31.4938 12.5278 28.7596 15.654 28.0502L20.2849 26.9995C34.7677 23.7135 50.0775 23.7135 64.5601 26.9995L69.1909 28.0502C72.3172 28.7594 74.5006 31.4938 74.5006 34.6996V44.4679C74.5006 48.1007 71.9049 51.1673 68.3253 51.7682L66.571 52.1018V54.837C66.571 57.5485 68.777 59.7545 71.4886 59.7545H71.7177V82.5098C71.7177 83.885 72.8326 85 74.2079 85C75.5832 85 76.6982 83.885 76.6982 82.5098V59.7548H76.9273C79.6388 59.7548 81.8448 57.5488 81.8448 54.8373V37.3386C81.8445 34.627 79.6386 32.421 76.9271 32.421Z"
      fill="#FFFFFF"/>
<path d="M68.456 31.2886L63.8252 30.2379C56.8243 28.6495 49.6232 27.8551 42.4223 27.8551C35.2213 27.8551 28.0202 28.6495 21.0194 30.2379L16.3885 31.2886C14.7846 31.6525 13.6644 33.0555 13.6644 34.7001V44.4685C13.6644 46.4757 15.1012 48.1696 17.0808 48.496L17.1208 48.5031L33.9749 51.7084C36.6775 52.2222 39.3073 50.5323 39.9614 47.8615L39.9838 47.7793L42.4224 39.6515L44.8609 47.7793L44.8833 47.8615C45.5372 50.5323 48.1671 52.2222 50.8698 51.7084L67.7239 48.5031L67.7639 48.496C69.7435 48.1696 71.1803 46.4757 71.1803 44.4685V34.7001C71.1805 33.0554 70.06 31.6525 68.456 31.2886Z"
      fill="#FFFFFF"/>
</svg>
