<svg width="87" height="87" viewBox="0 0 87 87" fill="none" xmlns="http://www.w3.org/2000/svg">
<path d="M17.0107 79.5373C16.8551 79.6254 16.6964 79.7079 16.535 79.7846L19.0792 82.3288C28.1826 90.9948 41.7644 79.7255 35.1152 69.2218L17.0107 79.5373ZM4.11218 52.6442C0.0480405 56.7083 0.0480405 63.2977 4.11218 67.3618L6.65654 69.9062C6.73311 69.7458 6.81463 69.5869 6.90372 69.4306L17.2188 51.3255C13.1771 48.6425 7.67472 49.0816 4.11218 52.6442ZM81.5535 63.0935L68.5969 50.1369C68.4594 50.219 68.3222 50.3015 68.1829 50.3809L45.083 63.5426L63.0932 81.5539C75.7808 93.3333 93.3282 75.7674 81.5535 63.0935ZM22.8978 41.3573L36.0588 18.2568C36.1381 18.1175 36.2206 17.9803 36.3028 17.843L23.3475 4.88762C10.6601 -6.89195 -6.88734 10.6741 4.88729 23.3478L22.8978 41.3573ZM56.1104 26.8534C55.1767 26.9784 54.3061 27.5658 53.8387 28.386L48.2561 38.185L58.0548 32.6026C58.8754 32.1351 59.4626 31.2655 59.5879 30.3286C59.87 28.3405 58.1014 26.5692 56.1104 26.8534Z"
      fill="#FFFFFF"/>
<path d="M74.9711 32.3977C75.3807 29.3584 75.0133 26.2809 73.9661 23.4517L75.4232 21.9947L81.1597 27.7312C82.1244 28.6959 83.6883 28.6959 84.6529 27.7312C85.6176 26.7667 85.6176 25.2027 84.6529 24.238L78.6313 18.2166C80.0772 15.3134 79.594 11.695 77.1699 9.27103C74.7492 6.85016 71.1303 6.36207 68.2243 7.80955L62.2029 1.78794C61.2384 0.823289 59.6743 0.823289 58.7097 1.78794C57.745 2.7526 57.745 4.3165 58.7097 5.28116L64.4464 11.0179L62.99 12.4742C60.1603 11.4264 57.082 11.0589 54.0418 11.4684C48.3246 12.2383 43.2065 15.6902 40.3511 20.7023L11.1959 71.876C10.9279 72.3463 10.8218 72.8917 10.894 73.4282C10.9662 73.9647 11.2127 74.4626 11.5955 74.8454C12.1643 75.4142 13.3585 75.9322 14.5649 75.245L65.7373 46.0885C70.7494 43.2329 74.2013 38.1149 74.9711 32.3977ZM64.4838 30.9881C64.1541 33.4525 62.6648 35.6614 60.5007 36.8948H60.5005L42.8719 46.938C41.6657 47.6252 40.4713 47.1073 39.9025 46.5384C39.5198 46.1556 39.2733 45.6577 39.2011 45.1212C39.1289 44.5847 39.2349 44.0394 39.5028 43.569L49.5461 25.9404C50.7795 23.7759 52.9884 22.2868 55.4551 21.9568C57.9197 21.6243 60.4432 22.4768 62.2029 24.2367C63.9639 25.9979 64.8161 28.5212 64.4838 30.9881Z"
      fill="#FFFFFF"/>
</svg>
