<svg width="85" height="85" viewBox="0 0 85 85" fill="none" xmlns="http://www.w3.org/2000/svg">
<g clip-path="url(#clip0_22_39)">
<path d="M42.3916 13.4886C37.9308 9.02425 30.6625 10.2946 27.7342 15.4018L10.1869 45.5236L40.4139 28.2008C45.67 25.4001 46.7278 17.6152 42.3916 13.4886ZM44.7136 11.1688C45.1926 11.6485 45.6329 12.1653 46.0303 12.7145L48.3018 10.4412C49.0877 9.65476 49.0877 8.37492 48.3018 7.58839C47.9215 7.20788 47.4161 6.99825 46.8786 6.99825C46.3411 6.99825 45.8358 7.20788 45.4555 7.5885L43.184 9.86197C43.7273 10.2568 44.2387 10.6938 44.7136 11.1688ZM51.7148 46.0312L38.675 32.9804L28.177 38.9966L43.4624 54.295C45.5729 56.5065 49.5201 56.5884 51.715 54.295C53.9913 52.0165 53.9913 48.3095 51.7148 46.0312ZM8.35851 50.3233L12.7894 54.758C14.3243 56.3648 17.2382 56.4624 18.8737 54.758C20.5523 53.0779 20.5523 50.3442 18.8738 48.6642L16.0991 45.8872L8.35851 50.3233ZM1.70735 12.5323L16.7873 27.625L22.8678 17.1873L9.95989 4.26856C7.84944 2.05712 3.90215 1.97506 1.70735 4.26856C-0.569079 6.54695 -0.569079 10.254 1.70735 12.5323ZM41.9747 6.42846L43.1335 5.26853C43.5275 4.87384 43.9813 4.54375 44.4781 4.29044L40.6722 0.481225C40.0315 -0.160117 38.9924 -0.160335 38.3514 0.480131C37.7102 1.12071 37.7097 2.15985 38.3503 2.80098L41.9747 6.42846ZM5.34621 47.3297L9.82959 39.6335L7.34321 37.1451C5.80824 35.538 2.89441 35.4405 1.25889 37.1451C-0.419629 38.825 -0.419629 41.5587 1.25889 43.2388L5.34621 47.3297ZM50.6236 12.761L49.4627 13.923L53.1949 17.6585C53.3471 17.8113 53.5281 17.9325 53.7273 18.015C53.9265 18.0976 54.1401 18.14 54.3558 18.1397C54.7756 18.1397 55.1954 17.9796 55.5157 17.6595C56.157 17.0189 56.1574 15.9798 55.5168 15.3387L51.598 11.4164C51.3463 11.9133 51.0174 12.3671 50.6236 12.761Z"
      fill="#FFFFFF"/>
<path d="M65.3171 78.7371C67.3883 80.8099 70.7631 80.2201 72.1227 77.8488L80.2701 63.8629L66.2354 71.906C63.7949 73.2064 63.3038 76.8211 65.3171 78.7371ZM64.239 79.8142C64.0166 79.5915 63.8122 79.3515 63.6276 79.0965L62.573 80.1521C62.2081 80.5172 62.2081 81.1114 62.573 81.4766C62.7495 81.6533 62.9842 81.7506 63.2337 81.7506C63.4833 81.7506 63.718 81.6533 63.8945 81.4766L64.9492 80.421C64.6969 80.2376 64.4595 80.0347 64.239 79.8142ZM60.9882 63.6272L67.0428 69.6869L71.9171 66.8934L64.8199 59.7903C63.84 58.7634 62.0073 58.7254 60.9882 59.7903C59.9313 60.8482 59.9313 62.5694 60.9882 63.6272ZM81.1191 61.6343L79.0618 59.5753C78.3491 58.8292 76.9961 58.7839 76.2367 59.5753C75.4573 60.3553 75.4573 61.6246 76.2367 62.4047L77.525 63.6941L81.1191 61.6343ZM84.2073 79.1811L77.2055 72.1734L74.3822 77.0198L80.3755 83.0181C81.3554 84.0449 83.1882 84.083 84.2073 83.0181C85.2642 81.9602 85.2642 80.239 84.2073 79.1811ZM65.5107 82.0152L64.9726 82.5538C64.7897 82.737 64.579 82.8903 64.3483 83.0079L66.1155 84.7766C66.4129 85.0743 66.8954 85.0744 67.193 84.7771C67.4907 84.4796 67.491 83.9972 67.1936 83.6995L65.5107 82.0152ZM82.5177 63.0243L80.436 66.5977L81.5905 67.7532C82.3032 68.4993 83.6561 68.5446 84.4155 67.7532C85.1948 66.9731 85.1948 65.7038 84.4155 64.9238L82.5177 63.0243ZM61.4949 79.0749L62.0339 78.5354L60.301 76.801C60.2304 76.73 60.1463 76.6738 60.0538 76.6354C59.9613 76.5971 59.8621 76.5774 59.762 76.5775C59.5671 76.5775 59.3722 76.6519 59.2234 76.8005C58.9257 77.0979 58.9255 77.5804 59.2229 77.8781L61.0425 79.6992C61.1594 79.4685 61.3121 79.2578 61.4949 79.0749Z"
      fill="#FFFFFF"/>
</g>
<defs>
<clipPath id="clip0_22_39">
<rect width="85" height="85" fill="#FFFFFF"/>
</clipPath>
</defs>
</svg>
