<svg width="246" height="168" viewBox="0 0 246 168" fill="none" xmlns="http://www.w3.org/2000/svg">
<path fill-rule="evenodd" clip-rule="evenodd"
      d="M180.284 83.3805C207.81 66.3818 219.218 51.4924 219.838 45.4126L149.038 92.4382V140.829L157.718 130.53V96.5328L180.284 83.3805ZM194.295 49.5072C221.698 30.0269 244.76 9.30586 246 0L128.084 81.6434V167.133L139.491 153.609V86.9787L194.295 49.5072ZM65.8397 83.3805C38.3135 66.3818 26.9063 51.4924 26.2863 45.4126L97.0857 92.4382V140.829L88.4063 130.53V96.5328L65.8397 83.3805ZM51.7046 49.5072C24.3024 30.0269 1.36391 9.30586 0 0L117.916 81.6434V167.133L106.633 153.733V86.9787L51.7046 49.5072Z"
      fill="#CCCCCC"/>
</svg>
