<svg width="9832" height="579" viewBox="0 0 9832 579" fill="none" xmlns="http://www.w3.org/2000/svg">
<g clip-path="url(#clip0_168_2)">
<rect width="9832" height="579" fill="white"/>
<path d="M376.5 -1H-7.5L-371 579.5H31.5L376.5 -1Z" fill="url(#paint0_linear_168_2)"/>
<path d="M566 -1H182L-181.5 579.5H221L566 -1Z" fill="url(#paint1_linear_168_2)"/>
<path d="M776 -1H392L28.5 579.5H431L776 -1Z" fill="url(#paint2_linear_168_2)"/>
<path d="M995 -1H611L247.5 579.5H650L995 -1Z" fill="url(#paint3_linear_168_2)"/>
<path d="M1184.5 -1H800.5L437 579.5H839.5L1184.5 -1Z" fill="url(#paint4_linear_168_2)"/>
<path d="M1394.5 -1H1010.5L647 579.5H1049.5L1394.5 -1Z" fill="url(#paint5_linear_168_2)"/>
<path d="M1611.5 1H1227.5L864 581.5H1266.5L1611.5 1Z" fill="url(#paint6_linear_168_2)"/>
<path d="M1801 1H1417L1053.5 581.5H1456L1801 1Z" fill="url(#paint7_linear_168_2)"/>
<path d="M2011 1H1627L1263.5 581.5H1666L2011 1Z" fill="url(#paint8_linear_168_2)"/>
<path d="M2230 1H1846L1482.5 581.5H1885L2230 1Z" fill="url(#paint9_linear_168_2)"/>
<path d="M2419.5 1H2035.5L1672 581.5H2074.5L2419.5 1Z" fill="url(#paint10_linear_168_2)"/>
<path d="M2629.5 1H2245.5L1882 581.5H2284.5L2629.5 1Z" fill="url(#paint11_linear_168_2)"/>
<path d="M2853.5 -1H2469.5L2106 579.5H2508.5L2853.5 -1Z" fill="url(#paint12_linear_168_2)"/>
<path d="M3043 -1H2659L2295.5 579.5H2698L3043 -1Z" fill="url(#paint13_linear_168_2)"/>
<path d="M3253 -1H2869L2505.5 579.5H2908L3253 -1Z" fill="url(#paint14_linear_168_2)"/>
<path d="M3472 -1H3088L2724.5 579.5H3127L3472 -1Z" fill="url(#paint15_linear_168_2)"/>
<path d="M3661.5 -1H3277.5L2914 579.5H3316.5L3661.5 -1Z" fill="url(#paint16_linear_168_2)"/>
<path d="M3871.5 -1H3487.5L3124 579.5H3526.5L3871.5 -1Z" fill="url(#paint17_linear_168_2)"/>
<path d="M4104.5 -2H3720.5L3357 578.5H3759.5L4104.5 -2Z" fill="url(#paint18_linear_168_2)"/>
<path d="M4294 -2H3910L3546.5 578.5H3949L4294 -2Z" fill="url(#paint19_linear_168_2)"/>
<path d="M4504 -2H4120L3756.5 578.5H4159L4504 -2Z" fill="url(#paint20_linear_168_2)"/>
<path d="M4723 -2H4339L3975.5 578.5H4378L4723 -2Z" fill="url(#paint21_linear_168_2)"/>
<path d="M4912.5 -2H4528.5L4165 578.5H4567.5L4912.5 -2Z" fill="url(#paint22_linear_168_2)"/>
<path d="M5122.5 -2H4738.5L4375 578.5H4777.5L5122.5 -2Z" fill="url(#paint23_linear_168_2)"/>
<path d="M5337.5 -2H4953.5L4590 578.5H4992.5L5337.5 -2Z" fill="url(#paint24_linear_168_2)"/>
<path d="M5527 -2H5143L4779.5 578.5H5182L5527 -2Z" fill="url(#paint25_linear_168_2)"/>
<path d="M5737 -2H5353L4989.5 578.5H5392L5737 -2Z" fill="url(#paint26_linear_168_2)"/>
<path d="M5956 -2H5572L5208.5 578.5H5611L5956 -2Z" fill="url(#paint27_linear_168_2)"/>
<path d="M6145.5 -2H5761.5L5398 578.5H5800.5L6145.5 -2Z" fill="url(#paint28_linear_168_2)"/>
<path d="M6355.5 -2H5971.5L5608 578.5H6010.5L6355.5 -2Z" fill="url(#paint29_linear_168_2)"/>
<path d="M6587.5 -2H6203.5L5840 578.5H6242.5L6587.5 -2Z" fill="url(#paint30_linear_168_2)"/>
<path d="M6777 -2H6393L6029.5 578.5H6432L6777 -2Z" fill="url(#paint31_linear_168_2)"/>
<path d="M6987 -2H6603L6239.5 578.5H6642L6987 -2Z" fill="url(#paint32_linear_168_2)"/>
<path d="M7206 -2H6822L6458.5 578.5H6861L7206 -2Z" fill="url(#paint33_linear_168_2)"/>
<path d="M7395.5 -2H7011.5L6648 578.5H7050.5L7395.5 -2Z" fill="url(#paint34_linear_168_2)"/>
<path d="M7605.5 -2H7221.5L6858 578.5H7260.5L7605.5 -2Z" fill="url(#paint35_linear_168_2)"/>
<path d="M7821.5 -2H7437.5L7074 578.5H7476.5L7821.5 -2Z" fill="url(#paint36_linear_168_2)"/>
<path d="M8011 -2H7627L7263.5 578.5H7666L8011 -2Z" fill="url(#paint37_linear_168_2)"/>
<path d="M8221 -2H7837L7473.5 578.5H7876L8221 -2Z" fill="url(#paint38_linear_168_2)"/>
<path d="M8440 -2H8056L7692.5 578.5H8095L8440 -2Z" fill="url(#paint39_linear_168_2)"/>
<path d="M8629.5 -2H8245.5L7882 578.5H8284.5L8629.5 -2Z" fill="url(#paint40_linear_168_2)"/>
<path d="M8839.5 -2H8455.5L8092 578.5H8494.5L8839.5 -2Z" fill="url(#paint41_linear_168_2)"/>
<path d="M9058.5 0H8674.5L8311 580.5H8713.5L9058.5 0Z" fill="url(#paint42_linear_168_2)"/>
<path d="M9248 0H8864L8500.5 580.5H8903L9248 0Z" fill="url(#paint43_linear_168_2)"/>
<path d="M9458 0H9074L8710.5 580.5H9113L9458 0Z" fill="url(#paint44_linear_168_2)"/>
<path d="M9677 0H9293L8929.5 580.5H9332L9677 0Z" fill="url(#paint45_linear_168_2)"/>
<path d="M9866.5 0H9482.5L9119 580.5H9521.5L9866.5 0Z" fill="url(#paint46_linear_168_2)"/>
<path d="M10076.5 0H9692.5L9329 580.5H9731.5L10076.5 0Z" fill="url(#paint47_linear_168_2)"/>
<path d="M9836 113L9537 578H9836V113Z" fill="url(#paint48_linear_168_2)"/>
</g>
<defs>
<linearGradient id="paint0_linear_168_2" x1="185.5" y1="54" x2="23" y2="-52" gradientUnits="userSpaceOnUse">
<stop stop-color="white"/>
<stop offset="1" stop-color="#410099" stop-opacity="0.6"/>
</linearGradient>
<linearGradient id="paint1_linear_168_2" x1="375" y1="54" x2="212.5" y2="-52" gradientUnits="userSpaceOnUse">
<stop stop-color="white"/>
<stop offset="1" stop-color="#410099" stop-opacity="0.6"/>
</linearGradient>
<linearGradient id="paint2_linear_168_2" x1="585" y1="54" x2="422.5" y2="-52" gradientUnits="userSpaceOnUse">
<stop stop-color="white"/>
<stop offset="1" stop-color="#410099" stop-opacity="0.6"/>
</linearGradient>
<linearGradient id="paint3_linear_168_2" x1="804" y1="54" x2="641.5" y2="-52" gradientUnits="userSpaceOnUse">
<stop stop-color="white"/>
<stop offset="1" stop-color="#410099" stop-opacity="0.6"/>
</linearGradient>
<linearGradient id="paint4_linear_168_2" x1="993.5" y1="54" x2="831" y2="-52" gradientUnits="userSpaceOnUse">
<stop stop-color="white"/>
<stop offset="1" stop-color="#410099" stop-opacity="0.6"/>
</linearGradient>
<linearGradient id="paint5_linear_168_2" x1="1203.5" y1="54" x2="1041" y2="-52" gradientUnits="userSpaceOnUse">
<stop stop-color="white"/>
<stop offset="1" stop-color="#410099" stop-opacity="0.6"/>
</linearGradient>
<linearGradient id="paint6_linear_168_2" x1="1420.5" y1="56" x2="1258" y2="-50" gradientUnits="userSpaceOnUse">
<stop stop-color="white"/>
<stop offset="1" stop-color="#410099" stop-opacity="0.6"/>
</linearGradient>
<linearGradient id="paint7_linear_168_2" x1="1610" y1="56" x2="1447.5" y2="-50" gradientUnits="userSpaceOnUse">
<stop stop-color="white"/>
<stop offset="1" stop-color="#410099" stop-opacity="0.6"/>
</linearGradient>
<linearGradient id="paint8_linear_168_2" x1="1820" y1="56" x2="1657.5" y2="-50" gradientUnits="userSpaceOnUse">
<stop stop-color="white"/>
<stop offset="1" stop-color="#410099" stop-opacity="0.6"/>
</linearGradient>
<linearGradient id="paint9_linear_168_2" x1="2039" y1="56" x2="1876.5" y2="-50" gradientUnits="userSpaceOnUse">
<stop stop-color="white"/>
<stop offset="1" stop-color="#410099" stop-opacity="0.6"/>
</linearGradient>
<linearGradient id="paint10_linear_168_2" x1="2228.5" y1="56" x2="2066" y2="-50" gradientUnits="userSpaceOnUse">
<stop stop-color="white"/>
<stop offset="1" stop-color="#410099" stop-opacity="0.6"/>
</linearGradient>
<linearGradient id="paint11_linear_168_2" x1="2438.5" y1="56" x2="2276" y2="-50" gradientUnits="userSpaceOnUse">
<stop stop-color="white"/>
<stop offset="1" stop-color="#410099" stop-opacity="0.6"/>
</linearGradient>
<linearGradient id="paint12_linear_168_2" x1="2662.5" y1="54" x2="2500" y2="-52" gradientUnits="userSpaceOnUse">
<stop stop-color="white"/>
<stop offset="1" stop-color="#410099" stop-opacity="0.6"/>
</linearGradient>
<linearGradient id="paint13_linear_168_2" x1="2852" y1="54" x2="2689.5" y2="-52" gradientUnits="userSpaceOnUse">
<stop stop-color="white"/>
<stop offset="1" stop-color="#410099" stop-opacity="0.6"/>
</linearGradient>
<linearGradient id="paint14_linear_168_2" x1="3062" y1="54" x2="2899.5" y2="-52" gradientUnits="userSpaceOnUse">
<stop stop-color="white"/>
<stop offset="1" stop-color="#410099" stop-opacity="0.6"/>
</linearGradient>
<linearGradient id="paint15_linear_168_2" x1="3281" y1="54" x2="3118.5" y2="-52" gradientUnits="userSpaceOnUse">
<stop stop-color="white"/>
<stop offset="1" stop-color="#410099" stop-opacity="0.6"/>
</linearGradient>
<linearGradient id="paint16_linear_168_2" x1="3470.5" y1="54" x2="3308" y2="-52" gradientUnits="userSpaceOnUse">
<stop stop-color="white"/>
<stop offset="1" stop-color="#410099" stop-opacity="0.6"/>
</linearGradient>
<linearGradient id="paint17_linear_168_2" x1="3680.5" y1="54" x2="3518" y2="-52" gradientUnits="userSpaceOnUse">
<stop stop-color="white"/>
<stop offset="1" stop-color="#410099" stop-opacity="0.6"/>
</linearGradient>
<linearGradient id="paint18_linear_168_2" x1="3913.5" y1="53" x2="3751" y2="-53" gradientUnits="userSpaceOnUse">
<stop stop-color="white"/>
<stop offset="1" stop-color="#410099" stop-opacity="0.6"/>
</linearGradient>
<linearGradient id="paint19_linear_168_2" x1="4103" y1="53" x2="3940.5" y2="-53" gradientUnits="userSpaceOnUse">
<stop stop-color="white"/>
<stop offset="1" stop-color="#410099" stop-opacity="0.6"/>
</linearGradient>
<linearGradient id="paint20_linear_168_2" x1="4313" y1="53" x2="4150.5" y2="-53" gradientUnits="userSpaceOnUse">
<stop stop-color="white"/>
<stop offset="1" stop-color="#410099" stop-opacity="0.6"/>
</linearGradient>
<linearGradient id="paint21_linear_168_2" x1="4532" y1="53" x2="4369.5" y2="-53" gradientUnits="userSpaceOnUse">
<stop stop-color="white"/>
<stop offset="1" stop-color="#410099" stop-opacity="0.6"/>
</linearGradient>
<linearGradient id="paint22_linear_168_2" x1="4721.5" y1="53" x2="4559" y2="-53" gradientUnits="userSpaceOnUse">
<stop stop-color="white"/>
<stop offset="1" stop-color="#410099" stop-opacity="0.6"/>
</linearGradient>
<linearGradient id="paint23_linear_168_2" x1="4931.5" y1="53" x2="4769" y2="-53" gradientUnits="userSpaceOnUse">
<stop stop-color="white"/>
<stop offset="1" stop-color="#410099" stop-opacity="0.6"/>
</linearGradient>
<linearGradient id="paint24_linear_168_2" x1="5146.5" y1="53" x2="4984" y2="-53" gradientUnits="userSpaceOnUse">
<stop stop-color="white"/>
<stop offset="1" stop-color="#410099" stop-opacity="0.6"/>
</linearGradient>
<linearGradient id="paint25_linear_168_2" x1="5336" y1="53" x2="5173.5" y2="-53" gradientUnits="userSpaceOnUse">
<stop stop-color="white"/>
<stop offset="1" stop-color="#410099" stop-opacity="0.6"/>
</linearGradient>
<linearGradient id="paint26_linear_168_2" x1="5546" y1="53" x2="5383.5" y2="-53" gradientUnits="userSpaceOnUse">
<stop stop-color="white"/>
<stop offset="1" stop-color="#410099" stop-opacity="0.6"/>
</linearGradient>
<linearGradient id="paint27_linear_168_2" x1="5765" y1="53" x2="5602.5" y2="-53" gradientUnits="userSpaceOnUse">
<stop stop-color="white"/>
<stop offset="1" stop-color="#410099" stop-opacity="0.6"/>
</linearGradient>
<linearGradient id="paint28_linear_168_2" x1="5954.5" y1="53" x2="5792" y2="-53" gradientUnits="userSpaceOnUse">
<stop stop-color="white"/>
<stop offset="1" stop-color="#410099" stop-opacity="0.6"/>
</linearGradient>
<linearGradient id="paint29_linear_168_2" x1="6164.5" y1="53" x2="6002" y2="-53" gradientUnits="userSpaceOnUse">
<stop stop-color="white"/>
<stop offset="1" stop-color="#410099" stop-opacity="0.6"/>
</linearGradient>
<linearGradient id="paint30_linear_168_2" x1="6396.5" y1="53" x2="6234" y2="-53" gradientUnits="userSpaceOnUse">
<stop stop-color="white"/>
<stop offset="1" stop-color="#410099" stop-opacity="0.6"/>
</linearGradient>
<linearGradient id="paint31_linear_168_2" x1="6586" y1="53" x2="6423.5" y2="-53" gradientUnits="userSpaceOnUse">
<stop stop-color="white"/>
<stop offset="1" stop-color="#410099" stop-opacity="0.6"/>
</linearGradient>
<linearGradient id="paint32_linear_168_2" x1="6796" y1="53" x2="6633.5" y2="-53" gradientUnits="userSpaceOnUse">
<stop stop-color="white"/>
<stop offset="1" stop-color="#410099" stop-opacity="0.6"/>
</linearGradient>
<linearGradient id="paint33_linear_168_2" x1="7015" y1="53" x2="6852.5" y2="-53" gradientUnits="userSpaceOnUse">
<stop stop-color="white"/>
<stop offset="1" stop-color="#410099" stop-opacity="0.6"/>
</linearGradient>
<linearGradient id="paint34_linear_168_2" x1="7204.5" y1="53" x2="7042" y2="-53" gradientUnits="userSpaceOnUse">
<stop stop-color="white"/>
<stop offset="1" stop-color="#410099" stop-opacity="0.6"/>
</linearGradient>
<linearGradient id="paint35_linear_168_2" x1="7414.5" y1="53" x2="7252" y2="-53" gradientUnits="userSpaceOnUse">
<stop stop-color="white"/>
<stop offset="1" stop-color="#410099" stop-opacity="0.6"/>
</linearGradient>
<linearGradient id="paint36_linear_168_2" x1="7630.5" y1="53" x2="7468" y2="-53" gradientUnits="userSpaceOnUse">
<stop stop-color="white"/>
<stop offset="1" stop-color="#410099" stop-opacity="0.6"/>
</linearGradient>
<linearGradient id="paint37_linear_168_2" x1="7820" y1="53" x2="7657.5" y2="-53" gradientUnits="userSpaceOnUse">
<stop stop-color="white"/>
<stop offset="1" stop-color="#410099" stop-opacity="0.6"/>
</linearGradient>
<linearGradient id="paint38_linear_168_2" x1="8030" y1="53" x2="7867.5" y2="-53" gradientUnits="userSpaceOnUse">
<stop stop-color="white"/>
<stop offset="1" stop-color="#410099" stop-opacity="0.6"/>
</linearGradient>
<linearGradient id="paint39_linear_168_2" x1="8249" y1="53" x2="8086.5" y2="-53" gradientUnits="userSpaceOnUse">
<stop stop-color="white"/>
<stop offset="1" stop-color="#410099" stop-opacity="0.6"/>
</linearGradient>
<linearGradient id="paint40_linear_168_2" x1="8438.5" y1="53" x2="8276" y2="-53" gradientUnits="userSpaceOnUse">
<stop stop-color="white"/>
<stop offset="1" stop-color="#410099" stop-opacity="0.6"/>
</linearGradient>
<linearGradient id="paint41_linear_168_2" x1="8648.5" y1="53" x2="8486" y2="-53" gradientUnits="userSpaceOnUse">
<stop stop-color="white"/>
<stop offset="1" stop-color="#410099" stop-opacity="0.6"/>
</linearGradient>
<linearGradient id="paint42_linear_168_2" x1="8867.5" y1="55" x2="8705" y2="-51" gradientUnits="userSpaceOnUse">
<stop stop-color="white"/>
<stop offset="1" stop-color="#410099" stop-opacity="0.6"/>
</linearGradient>
<linearGradient id="paint43_linear_168_2" x1="9057" y1="55" x2="8894.5" y2="-51" gradientUnits="userSpaceOnUse">
<stop stop-color="white"/>
<stop offset="1" stop-color="#410099" stop-opacity="0.6"/>
</linearGradient>
<linearGradient id="paint44_linear_168_2" x1="9267" y1="55" x2="9104.5" y2="-51" gradientUnits="userSpaceOnUse">
<stop stop-color="white"/>
<stop offset="1" stop-color="#410099" stop-opacity="0.6"/>
</linearGradient>
<linearGradient id="paint45_linear_168_2" x1="9486" y1="55" x2="9323.5" y2="-51" gradientUnits="userSpaceOnUse">
<stop stop-color="white"/>
<stop offset="1" stop-color="#410099" stop-opacity="0.6"/>
</linearGradient>
<linearGradient id="paint46_linear_168_2" x1="9675.5" y1="55" x2="9513" y2="-51" gradientUnits="userSpaceOnUse">
<stop stop-color="white"/>
<stop offset="1" stop-color="#410099" stop-opacity="0.6"/>
</linearGradient>
<linearGradient id="paint47_linear_168_2" x1="9885.5" y1="55" x2="9723" y2="-51" gradientUnits="userSpaceOnUse">
<stop stop-color="white"/>
<stop offset="1" stop-color="#410099" stop-opacity="0.6"/>
</linearGradient>
<linearGradient id="paint48_linear_168_2" x1="9497" y1="330.5" x2="9843.27" y2="557.964" gradientUnits="userSpaceOnUse">
<stop stop-color="#410099"/>
<stop offset="1" stop-color="white"/>
</linearGradient>
<clipPath id="clip0_168_2">
<rect width="9832" height="579" fill="white"/>
</clipPath>
</defs>
</svg>
