<svg width="363" height="422" viewBox="0 0 363 422" fill="none" xmlns="http://www.w3.org/2000/svg">
<g clip-path="url(#clip0_153_17)">
<mask id="mask0_153_17" style="mask-type:luminance" maskUnits="userSpaceOnUse" x="33" y="3" width="297" height="296">
<path d="M181.499 298.604C263.101 298.604 329.151 232.512 329.151 150.858C329.151 69.2044 263.101 3.11237 181.499 3.11237C99.8976 3.11237 33.8477 69.2044 33.8477 150.858C33.8477 232.329 99.8976 298.604 181.499 298.604Z" fill="white"/>
</mask>
<g mask="url(#mask0_153_17)">
<path d="M329.151 2.92929H33.8477V298.421H329.151V2.92929Z" fill="url(#paint0_linear_153_17)"/>
</g>
<path fill-rule="evenodd" clip-rule="evenodd" d="M77.5762 278.099L277.007 261.988L285.423 321.855H77.5762V278.099Z" fill="#492483"/>
<path fill-rule="evenodd" clip-rule="evenodd" d="M124.233 290.182C124.233 289.816 124.416 289.633 124.781 289.633H129.356C129.721 289.633 129.904 289.816 129.904 290.182V297.688C129.904 298.055 129.721 298.238 129.356 298.238H124.781C124.416 298.238 124.233 297.872 124.233 297.688V290.182ZM117.463 287.07V300.618C117.463 302.265 118.744 303.547 120.207 303.547H133.564C135.027 303.547 136.308 302.265 136.308 300.618V287.07C136.308 285.422 135.027 284.141 133.564 284.141H120.207C118.744 284.324 117.463 285.605 117.463 287.07Z" fill="#EEEEEE"/>
<path fill-rule="evenodd" clip-rule="evenodd" d="M157.897 303.547H164.666V284.324H161.739C159.726 284.324 157.531 285.239 156.25 286.704L152.408 291.647H152.225L146.37 284.324H138.137L139.966 289.633V303.547H146.553V292.562H146.736L152.042 299.336H152.225L157.531 292.562H157.714V303.547H157.897Z" fill="#EEEEEE"/>
<path fill-rule="evenodd" clip-rule="evenodd" d="M168.693 289.633V303.547H185.526L184.245 299.885C183.879 298.787 183.147 298.604 182.598 298.604H175.28V295.675H175.646H176.194H176.926H180.769C181.317 295.675 182.049 295.492 182.232 294.759L183.33 291.464H175.463V288.901H182.964C183.513 288.901 184.062 288.534 184.428 287.985L185.892 283.957H166.863L168.693 289.633Z" fill="#EEEEEE"/>
<path fill-rule="evenodd" clip-rule="evenodd" d="M195.222 298.604V289.267H199.796C200.528 289.267 201.077 289.816 201.077 290.365V297.505C201.077 298.238 200.528 298.787 199.796 298.787H195.222V298.604ZM186.623 284.324L188.453 289.633V303.547H203.456C206.2 303.547 207.481 301.167 207.481 299.702V288.351C207.481 286.887 206.017 284.324 203.456 284.324H186.623Z" fill="#EEEEEE"/>
<path fill-rule="evenodd" clip-rule="evenodd" d="M209.676 284.324L211.505 289.633V303.547H218.275V284.324H209.676Z" fill="#EEEEEE"/>
<path fill-rule="evenodd" clip-rule="evenodd" d="M229.985 289.267H231.815L233.279 296.59H228.522L229.985 289.267ZM227.058 303.547L227.607 300.801H231.266C231.998 300.801 233.462 300.801 233.462 300.801H233.828H234.011L234.56 303.547H241.329L237.487 284.324H221.569L223.399 289.633L220.654 303.547H227.058Z" fill="#EEEEEE"/>
<path fill-rule="evenodd" clip-rule="evenodd" d="M241.695 277.367L243.525 282.31V295.675C243.525 295.675 246.086 295.675 247.733 295.675C249.197 295.675 249.746 295.675 249.746 295.675V277.367H241.695ZM243.525 297.322V303.547H249.746V297.322H243.525Z" fill="#EEEEEE"/>
<path fill-rule="evenodd" clip-rule="evenodd" d="M117.646 307.392C117.829 307.941 117.829 308.307 118.378 308.49V313.433H119.842V310.138H120.025C120.025 310.321 120.391 310.87 120.574 310.87H123.501V313.433H124.965V307.392H123.501V309.955H119.842V307.392H117.646Z" fill="#EEEEEE"/>
<path fill-rule="evenodd" clip-rule="evenodd" d="M128.257 312.701C128.074 312.701 127.708 312.518 127.708 312.335V311.053C127.708 310.87 127.891 310.687 128.257 310.687H131.367V312.701H128.257ZM126.793 307.941C126.793 308.124 127.159 308.307 127.342 308.307H130.635C131.184 308.307 131.367 308.673 131.367 309.039V309.772H127.708C126.976 309.772 126.244 310.138 126.244 310.87V312.335C126.244 313.067 126.976 313.433 127.708 313.433H130.452C130.818 313.433 131.184 313.067 131.367 312.701H131.55V313.433H133.014V308.673C133.014 307.941 132.465 307.392 131.55 307.392H126.793V307.941Z" fill="#EEEEEE"/>
<path fill-rule="evenodd" clip-rule="evenodd" d="M139.602 309.955C139.784 309.955 140.15 309.772 140.15 309.406V307.392H136.308C135.393 307.392 134.479 307.758 134.479 308.673V311.969C134.479 312.884 135.027 313.433 136.125 313.433H139.602C139.967 313.433 140.15 312.701 140.333 312.335H136.674C136.308 312.335 135.942 311.969 135.942 311.603V308.856C135.942 308.49 136.308 308.124 136.674 308.124H139.053V309.955H139.602Z" fill="#EEEEEE"/>
<path fill-rule="evenodd" clip-rule="evenodd" d="M140.883 307.392C141.066 307.758 141.249 308.49 141.432 308.49H143.444V313.433H144.908V308.49H147.47V307.392H140.883Z" fill="#EEEEEE"/>
<path fill-rule="evenodd" clip-rule="evenodd" d="M150.03 308.856C150.03 308.49 150.213 308.307 150.579 308.307H153.14C153.506 308.307 153.689 308.49 153.689 308.856V311.786C153.689 312.152 153.506 312.335 153.14 312.335H150.579C150.213 312.335 150.03 312.152 150.03 311.786V308.856ZM148.566 308.673V312.152C148.566 312.884 149.115 313.433 149.847 313.433H153.689C154.421 313.433 154.97 312.884 154.97 312.152V308.673C154.97 307.941 154.421 307.392 153.689 307.392H149.847C149.298 307.392 148.566 307.941 148.566 308.673Z" fill="#EEEEEE"/>
<path fill-rule="evenodd" clip-rule="evenodd" d="M157.716 308.673C157.716 308.49 157.716 308.307 157.899 308.307H161.009V310.687H158.082C157.899 310.687 157.716 310.687 157.716 310.504V308.673ZM162.656 307.392H156.984C156.618 307.392 156.435 307.758 156.435 308.124L156.801 310.504C156.801 310.87 157.167 311.236 157.533 311.236H158.448C158.265 311.236 158.082 311.42 157.899 311.603L156.252 313.433H157.35C157.716 313.433 158.082 313.25 158.082 313.067L159.728 311.236H160.46C160.826 311.236 161.009 310.87 161.009 310.504V313.25H162.473V307.392H162.656Z" fill="#EEEEEE"/>
<path fill-rule="evenodd" clip-rule="evenodd" d="M173.45 315.63C173.816 315.63 174.731 315.447 174.731 314.898V312.518H173.816V307.575H172.353V312.518H169.791V307.575H168.327V312.518H165.583V307.575H163.57C163.753 307.941 163.936 308.673 164.302 308.673V313.617H173.45V315.63Z" fill="#EEEEEE"/>
<path fill-rule="evenodd" clip-rule="evenodd" d="M181.865 307.392C181.499 307.392 180.585 308.124 180.219 308.49L177.108 311.603V307.392H175.096C175.279 307.941 175.279 308.307 175.828 308.49V313.433H176.193C176.742 313.433 177.474 312.701 177.84 312.335L180.951 309.223V313.433H182.414V307.392H181.865Z" fill="#EEEEEE"/>
<path fill-rule="evenodd" clip-rule="evenodd" d="M185.342 310.138V309.04C185.342 308.673 185.708 308.49 186.074 308.49H188.452C188.818 308.49 189.001 308.856 189.001 309.04V310.138H185.342ZM185.342 313.433H189.55C189.916 313.433 190.099 312.884 190.282 312.518H186.074C185.708 312.518 185.342 312.335 185.342 311.969V310.321C185.342 310.504 185.525 311.053 185.891 311.053H190.282V309.04C190.282 308.124 189.733 307.575 188.635 307.575H185.342C184.427 307.575 183.695 308.124 183.695 309.04V312.152C183.878 312.701 184.427 313.433 185.342 313.433Z" fill="#EEEEEE"/>
<path d="M105.936 294.942L102.825 300.069V303.547H101.728V300.069L98.6173 294.942H99.7151L102.277 299.153L104.838 294.942H105.936ZM95.141 302.449C95.5069 302.449 95.8729 302.266 96.2388 302.082C96.6047 301.899 96.6047 301.533 96.6047 300.984C96.6047 300.618 96.4217 300.252 96.2388 300.069C95.8729 299.885 95.5069 299.702 95.141 299.702H92.7625V302.449H95.141ZM96.4217 297.322C96.4217 297.139 96.4217 296.773 96.2388 296.59C96.0558 296.407 95.8729 296.224 95.6899 296.041C95.5069 295.858 95.324 295.858 94.958 295.858H92.5795V298.421H95.141C95.5069 298.421 95.8729 298.238 96.0558 298.055C96.4217 298.055 96.4217 297.689 96.4217 297.322ZM96.6047 299.153C96.9706 299.336 97.3366 299.519 97.5195 299.885C97.7025 300.252 97.8855 300.618 97.8855 301.167C97.8855 301.899 97.7025 302.449 97.1536 302.815C96.6047 303.181 96.0558 303.547 95.324 303.547H91.8477V294.942H95.141C95.8729 294.942 96.4218 295.125 96.7877 295.492C97.1536 295.858 97.5195 296.407 97.5195 297.139C97.5195 297.505 97.3366 297.872 97.1536 298.238C97.1536 298.604 96.7877 298.97 96.6047 299.153Z" fill="white"/>
<path d="M295.67 361.4C296.585 361.4 297.317 361.034 297.866 360.485C298.415 359.936 298.781 359.203 298.781 358.288C298.781 357.373 298.415 356.64 297.866 356.091C297.317 355.542 296.585 355.176 295.67 355.176C294.755 355.176 294.023 355.542 293.475 356.091C292.926 356.64 292.56 357.373 292.56 358.288C292.56 358.837 292.743 359.387 292.926 359.936C293.109 360.485 293.658 360.851 294.023 361.034C294.572 361.217 295.121 361.4 295.67 361.4ZM295.853 353.894C297.134 353.894 298.232 354.26 298.963 355.176C299.878 356.091 300.244 357.006 300.244 358.288C300.244 359.57 299.878 360.668 298.963 361.4C298.049 362.316 297.134 362.682 295.853 362.682C294.572 362.682 293.475 362.316 292.743 361.4V365.611H291.462V354.077H292.377L292.56 355.359C292.926 354.81 293.475 354.443 294.023 354.26C294.572 353.894 295.121 353.894 295.853 353.894ZM289.632 354.077V355.359H286.522V362.682H285.241V355.359H282.131V354.077H289.632ZM279.02 354.077H280.301V362.682H279.02V358.837H274.446V362.682H273.166V354.077H274.446V357.556H279.02V354.077ZM266.945 355.176C266.396 355.176 266.03 355.359 265.481 355.542C265.115 355.725 264.749 356.091 264.383 356.457C264.2 356.823 264.017 357.19 263.834 357.739H269.689C269.506 357.19 269.323 356.823 269.14 356.457C268.957 356.091 268.591 355.725 268.043 355.542C267.86 355.176 267.494 355.176 266.945 355.176ZM271.153 358.288C271.153 358.471 271.153 358.654 271.153 358.837H263.834C264.017 359.57 264.2 360.302 264.749 360.668C265.298 361.217 266.03 361.4 266.762 361.4C267.311 361.4 267.86 361.217 268.409 361.034C268.957 360.851 269.14 360.485 269.506 359.936H270.97C270.604 360.851 270.055 361.583 269.323 361.95C268.591 362.499 267.86 362.682 266.945 362.682C265.664 362.682 264.749 362.316 263.834 361.4C262.92 360.485 262.554 359.57 262.554 358.288C262.554 357.006 262.92 355.908 263.834 355.176C264.749 354.26 265.664 353.894 266.945 353.894C268.226 353.894 269.323 354.26 270.055 355.176C270.787 355.908 271.153 357.006 271.153 358.288ZM260.358 361.217H261.456V364.696H260.175V362.499H253.223V353.894H254.503V361.217H258.894V353.894H260.175V361.217H260.358ZM245.721 354.077H246.453V362.682H245.172V356.64L240.232 362.682H239.5V354.077H240.781V360.119L245.721 354.077ZM244.989 351.331V352.429H240.781V351.331H244.989ZM230.718 361.4C231.267 361.4 231.633 361.217 231.999 360.851C232.365 360.485 232.548 360.119 232.548 359.57C232.548 359.02 232.365 358.654 231.999 358.288C231.633 357.922 231.267 357.739 230.718 357.739H228.705V361.217H230.718V361.4ZM235.475 354.077H236.756V362.682H235.475V354.077ZM230.901 356.64C231.816 356.64 232.548 356.823 233.097 357.373C233.645 357.922 234.011 358.654 234.011 359.57C234.011 360.485 233.645 361.034 233.097 361.584C232.548 362.133 231.816 362.316 230.901 362.316H227.425V353.711H228.705V356.457H230.901V356.64ZM223.399 354.077H224.68V362.682H223.399V358.837H218.825V362.682H217.545V354.077H218.825V357.556H223.399V354.077ZM211.141 361.4C212.056 361.4 212.605 361.034 213.336 360.485C213.885 359.936 214.251 359.203 214.251 358.471C214.251 357.556 213.885 357.006 213.336 356.457C212.788 355.908 212.056 355.542 211.141 355.542C210.226 355.542 209.494 355.908 208.945 356.457C208.396 357.006 208.03 357.739 208.03 358.471C208.03 358.837 208.03 359.203 208.213 359.57C208.396 359.936 208.579 360.302 208.762 360.485C208.945 360.668 209.311 360.851 209.677 361.034C210.226 361.4 210.775 361.4 211.141 361.4ZM211.324 354.443C212.605 354.443 213.519 354.81 214.251 355.542C214.983 356.274 215.349 357.373 215.349 358.471C215.349 359.753 214.983 360.668 214.068 361.584C213.336 362.316 212.239 362.682 210.958 362.682C209.677 362.682 208.579 362.316 207.848 361.4C207.116 360.485 206.567 359.387 206.567 357.922C206.567 355.725 206.933 354.077 207.665 352.979C208.396 351.88 209.86 351.148 211.69 350.599L214.251 350.049V351.331L211.69 351.88C210.592 352.063 209.677 352.613 209.128 353.162C208.579 353.711 208.03 354.443 207.848 355.542C208.945 354.81 210.043 354.443 211.324 354.443ZM200.895 355.176C200.346 355.176 199.98 355.359 199.431 355.542C199.065 355.725 198.699 356.091 198.333 356.457C198.15 356.823 197.785 357.19 197.785 357.739H203.639C203.456 357.19 203.273 356.823 203.09 356.457C202.908 356.091 202.542 355.725 201.993 355.542C201.81 355.176 201.261 355.176 200.895 355.176ZM205.103 358.288C205.103 358.471 205.103 358.654 205.103 358.837H197.785C197.967 359.57 198.15 360.302 198.699 360.668C199.248 361.217 199.98 361.4 200.712 361.4C201.261 361.4 201.81 361.217 202.359 361.034C202.725 360.851 203.09 360.485 203.456 359.936H204.92C204.554 360.851 204.005 361.583 203.273 361.95C202.542 362.499 201.81 362.682 200.895 362.682C199.614 362.682 198.699 362.316 197.785 361.4C196.87 360.485 196.504 359.57 196.504 358.288C196.504 357.006 196.87 355.908 197.785 355.176C198.699 354.26 199.614 353.894 200.895 353.894C202.176 353.894 203.273 354.26 204.005 355.176C204.737 355.908 205.103 357.006 205.103 358.288ZM193.21 354.077H194.491V362.682H193.21V359.387C192.479 359.57 191.93 359.753 191.198 359.753C190.1 359.753 189.368 359.387 188.819 358.837C188.27 358.288 187.904 357.373 187.904 356.457V354.077H189.185V356.274C189.185 357.007 189.368 357.556 189.734 357.922C190.1 358.288 190.649 358.471 191.381 358.471C192.113 358.471 192.662 358.288 193.393 357.922V354.077H193.21ZM185.526 354.077H186.99L182.964 362.865C182.599 363.597 182.416 364.147 182.05 364.513C181.684 364.879 181.318 365.245 180.952 365.428C180.586 365.611 180.037 365.611 179.488 365.611H178.756V364.33H179.305C179.854 364.33 180.22 364.147 180.586 363.964C180.952 363.78 181.135 363.231 181.501 362.499L181.867 361.767L178.024 353.894H179.488L182.599 360.302L185.526 354.077ZM171.621 354.077H172.353V362.682H171.072V356.64L166.132 362.682H165.4V354.077H166.681V360.119L171.621 354.077ZM170.889 351.331V352.429H166.681V351.331H170.889ZM156.618 361.4C157.167 361.4 157.533 361.217 157.898 360.851C158.264 360.485 158.447 360.119 158.447 359.57C158.447 359.02 158.264 358.654 157.898 358.288C157.533 357.922 157.167 357.739 156.618 357.739H154.605V361.217H156.618V361.4ZM161.375 354.077H162.655V362.682H161.375V354.077ZM156.801 356.64C157.715 356.64 158.447 356.823 158.996 357.373C159.545 357.922 159.911 358.654 159.911 359.57C159.911 360.485 159.545 361.034 158.996 361.584C158.447 362.133 157.715 362.316 156.801 362.316H153.324V353.711H154.605V356.457H156.801V356.64ZM149.299 354.077H150.58V362.682H149.299V358.837H144.725V362.682H143.444V354.077H144.725V357.556H149.299V354.077ZM139.419 354.077H140.7V362.682H139.419V358.837H134.845V362.682H133.564V354.077H134.845V357.556H139.419V354.077ZM124.782 360.485C125.331 361.034 126.063 361.4 126.978 361.4C127.892 361.4 128.624 361.034 129.173 360.485C129.722 359.936 130.088 359.203 130.088 358.288C130.088 357.373 129.722 356.64 129.173 356.091C128.624 355.542 127.892 355.176 126.978 355.176C126.063 355.176 125.331 355.542 124.782 356.091C124.233 356.64 123.867 357.373 123.867 358.288C123.867 359.203 124.05 359.936 124.782 360.485ZM126.978 362.682C126.063 362.682 125.331 362.499 124.599 362.133C123.867 361.767 123.318 361.217 122.952 360.485C122.586 359.753 122.403 359.02 122.403 358.288C122.403 357.006 122.769 355.908 123.684 355.176C124.599 354.26 125.697 353.894 126.978 353.894C127.892 353.894 128.624 354.077 129.356 354.443C130.088 354.81 130.637 355.359 131.003 356.091C131.369 356.823 131.552 357.556 131.552 358.288C131.552 359.57 131.186 360.668 130.271 361.4C129.356 362.316 128.258 362.682 126.978 362.682ZM119.659 354.077H120.391V362.682H119.11V356.64L114.17 362.682H113.438V354.077H114.719V360.119L119.659 354.077ZM110.328 361.217H111.426V364.696H110.145V362.499H103.192V353.894H104.473V361.217H108.864V353.894H110.145V361.217H110.328ZM93.8611 360.485C94.41 361.034 95.1419 361.4 96.0567 361.4C96.9715 361.4 97.7034 361.034 98.2523 360.485C98.8012 359.936 99.1671 359.203 99.1671 358.288C99.1671 357.373 98.8012 356.64 98.2523 356.091C97.7034 355.542 96.9715 355.176 96.0567 355.176C95.1419 355.176 94.41 355.542 93.8611 356.091C93.3122 356.64 92.9463 357.373 92.9463 358.288C92.9463 359.203 93.3122 359.936 93.8611 360.485ZM99.533 354.077H100.631V362.682H99.533L99.3501 361.4C98.9841 361.95 98.4352 362.316 97.8863 362.499C97.3375 362.682 96.6056 362.865 96.0567 362.865C94.776 362.865 93.6782 362.499 92.9463 361.584C92.0315 360.668 91.6656 359.753 91.6656 358.471C91.6656 357.19 92.0315 356.091 92.9463 355.359C93.8611 354.443 94.776 354.077 96.0567 354.077C96.7886 354.077 97.3375 354.26 97.8863 354.443C98.4352 354.626 98.9841 354.993 99.3501 355.542L99.533 354.077ZM88.9211 354.077H89.653V362.682H88.3722V356.64L83.4322 362.682H82.7004V354.077H83.9811V360.119L88.9211 354.077ZM77.5774 361.217C77.7603 361.217 78.1263 361.217 78.3092 361.034C78.4922 360.851 78.6752 360.851 78.8581 360.668C79.0411 360.485 79.0411 360.302 79.0411 360.119C79.0411 359.936 79.0411 359.753 78.8581 359.387C78.6752 359.203 78.4922 359.02 78.3092 359.02C78.1263 358.837 77.7603 358.837 77.5774 358.837H74.8329V361.4H77.5774V361.217ZM78.8581 356.457C78.8581 356.091 78.6752 355.908 78.4922 355.542C78.3092 355.359 77.9433 355.176 77.5774 355.176H74.8329V357.373H77.5774C77.9433 357.373 78.3092 357.19 78.4922 357.006C78.6752 357.006 78.8581 356.823 78.8581 356.457ZM79.0411 358.105C79.407 358.288 79.7729 358.471 80.1389 358.837C80.3218 359.203 80.5048 359.57 80.5048 360.119C80.5048 360.851 80.3218 361.4 79.7729 361.767C79.224 362.133 78.6752 362.499 77.9433 362.499H73.7351V353.894H77.9433C78.6752 353.894 79.224 354.077 79.59 354.443C79.9559 354.81 80.3218 355.359 80.3218 355.908C80.3218 356.274 80.3218 356.457 80.1389 356.64C79.9559 356.823 79.9559 357.19 79.7729 357.373C79.407 357.922 79.224 357.922 79.0411 358.105ZM66.5996 353.345L64.404 358.654H68.6121L66.5996 353.345ZM70.4418 362.499L69.344 359.936H64.0381L62.9403 362.499H61.4766L66.0507 351.514H67.3314L71.9055 362.499H70.4418Z" fill="white"/>
<path d="M288.351 422L293.291 412.297L297.499 419.986C298.231 421.085 299.694 422 300.975 422H313.234L302.256 405.523L303.354 404.607C303.902 404.241 304.268 403.692 304.634 403.143L312.319 388.679H302.073L296.584 398.383L292.193 390.327C291.644 389.229 290.18 388.679 288.899 388.679H277.373L288.168 404.79L287.436 405.34C286.887 405.706 286.521 406.255 286.155 406.804L277.922 421.817H288.351V422ZM246.086 397.833V421.817H275.543L273.348 415.592C272.799 413.761 271.335 413.395 270.42 413.395H257.613V406.438L258.527 407.72C258.893 408.086 259.442 408.635 259.991 408.635H266.578C267.493 408.635 268.773 408.269 269.139 407.17L271.152 401.495H257.43V396.918H270.42C271.518 396.918 272.433 396.369 272.799 395.453L275.177 388.679H242.427L246.086 397.833ZM208.761 394.904C209.859 398.2 211.872 398.749 214.067 398.932H218.824V422H230.351V398.932H240.048V388.862H206.749L208.761 394.904ZM189.001 397.284H192.112L194.673 409.917H186.44L189.001 397.284ZM184.061 422L184.976 417.057H191.197C192.661 417.057 194.307 416.324 194.856 415.043L195.405 413.578L197.052 422H208.944L202.175 388.862H174.364L177.658 398.016L172.718 422H184.061ZM141.98 422C144.541 422 147.103 419.986 148.566 417.606L156.983 403.509V421.817H168.509V388.679H160.093C156.8 388.679 154.787 390.876 153.323 393.073L144.907 407.17V388.679H129.904L133.197 397.833V421.817H141.98V422ZM105.57 401.678V396.552H113.071C113.254 396.552 113.437 396.918 113.437 397.101L112.522 401.312C112.522 401.495 112.339 401.861 112.156 401.861H105.57V401.678ZM105.57 405.706C105.753 405.889 106.302 407.17 106.485 407.354C107.216 407.903 107.765 408.269 108.497 408.269H115.633C115.816 408.269 115.999 408.635 115.999 408.635L115.267 413.578C115.267 413.761 115.084 414.127 114.901 414.127H105.753V405.706H105.57ZM94.0431 396.186V422H121.305C123.317 422 125.513 420.169 125.879 418.338L127.891 406.804C127.891 404.79 126.611 403.692 125.147 403.692H120.756C122.037 403.326 123.866 401.678 124.049 400.58L125.879 392.158C125.879 390.144 124.598 389.046 123.134 389.046H90.5668L94.0431 396.186ZM69.526 397.284H72.6363L75.1978 409.917H66.9645L69.526 397.284ZM64.5859 422L65.5008 417.057H71.7215C73.1852 417.057 74.8319 416.324 75.3808 415.043L75.9297 413.578L77.5764 422H89.469L82.6993 388.862H54.8889L58.1822 398.016L53.2422 422H64.5859Z" fill="white"/>
<path fill-rule="evenodd" clip-rule="evenodd" d="M266.029 123.03C306.647 97.9479 323.48 75.9783 324.395 67.0074L219.922 136.395V207.796L232.73 192.6V142.436L266.029 123.03ZM286.704 73.049C327.139 44.3054 361.17 13.731 363 0L189.002 120.467V246.609L205.834 226.653V128.339L286.704 73.049ZM97.1537 123.03C56.5358 97.9479 39.7031 75.9783 38.7883 67.0074L143.261 136.395V207.796L130.453 192.6V142.436L97.1537 123.03ZM76.2959 73.049C35.8609 44.3054 2.0126 13.731 0 0L173.998 120.467V246.609L157.349 226.836V128.339L76.2959 73.049Z" fill="#496CB3"/>
<path fill-rule="evenodd" clip-rule="evenodd" d="M266.029 123.03C306.647 97.9479 323.48 75.9783 324.395 67.0074L219.922 136.395V207.796L232.73 192.6V142.436L266.029 123.03ZM286.704 73.049C327.139 44.3054 361.17 13.731 363 0L189.002 120.467V246.609L205.834 226.653V128.339L286.704 73.049ZM97.1537 123.03C56.5358 97.9479 39.7031 75.9783 38.7883 67.0074L143.261 136.395V207.796L130.453 192.6V142.436L97.1537 123.03ZM76.2959 73.049C35.8609 44.3054 2.0126 13.731 0 0L173.998 120.467V246.609L157.349 226.836V128.339L76.2959 73.049Z" fill="#5586C5"/>
</g>
<defs>
<linearGradient id="paint0_linear_153_17" x1="73.9229" y1="254.448" x2="278.419" y2="57.6756" gradientUnits="userSpaceOnUse">
<stop stop-color="#3C2583"/>
<stop offset="1" stop-color="#632584"/>
</linearGradient>
<clipPath id="clip0_153_17">
<rect width="363" height="422" fill="white"/>
</clipPath>
</defs>
</svg>
