<svg xmlns="http://www.w3.org/2000/svg" viewBox="0 0 329.28 80.45"><defs><style>.cls-1{fill:#410099;}</style></defs><g id="Слой_2" data-name="Слой 2"><g id="Слой_1-2" data-name="Слой 1"><path class="cls-1" d="M0,61.86,6.18,31.44,2,19.86H37.26l8.52,42h-15L28.62,51.18,27.9,53.1c-.6,1.62-2.76,2.58-4.56,2.58H15.42l-1.26,6.18ZM17.28,46.62H27.66l-3.24-16h-3.9Z"/><path class="cls-1" d="M47.28,19.86h41.1c1.8,0,3.42,1.32,3.42,3.9L89.52,34.44c-.36,1.5-2.7,3.48-4.26,4H90.9c1.8,0,3.42,1.38,3.42,4L91.8,57.12a6.41,6.41,0,0,1-5.7,4.74H51.48V29.28ZM74.34,36.12c.24,0,.48-.36.54-.6L76,30.12c0-.24-.12-.6-.36-.6H66.18v6.6Zm-8.16,15.6h11.7c.24,0,.48-.3.54-.6l.84-6.18c0-.18-.12-.54-.36-.54H70a4.46,4.46,0,0,1-2.58-1.08c-.36-.24-1-1.74-1.2-2Z"/><path class="cls-1" d="M101.52,61.86V31.44l-4.2-11.58h18.9v23.4l10.56-17.82c1.74-2.88,4.38-5.58,8.52-5.58H146v42h-14.7V38.58L120.72,56.34c-1.74,2.88-5,5.52-8.34,5.52Z"/><path class="cls-1" d="M151.44,61.86l6.18-30.42-4.2-11.58H188.7l8.52,42h-15l-2.16-10.68-.72,1.92c-.6,1.62-2.76,2.58-4.56,2.58h-7.92l-1.26,6.18Zm17.28-15.24H179.1l-3.24-16H172Z"/><path class="cls-1" d="M194.52,19.86h42.36V32.64h-12.3V61.86h-14.7V32.64h-6c-2.82-.18-5.52-1-6.84-5Z"/><path class="cls-1" d="M240.18,19.86H281.7l-3.12,8.58a3.31,3.31,0,0,1-3.06,1.92H259.08v5.76h17.34l-2.58,7.08a3.24,3.24,0,0,1-3.24,1.86h-8.46a2.9,2.9,0,0,1-1.86-1.2l-1.14-1.62h-.06v9.12h16.14a3.79,3.79,0,0,1,3.66,2.7l2.82,7.8H244.38V31.44Z"/><path class="cls-1" d="M284.58,61.86l10.38-19a6.5,6.5,0,0,1,1.56-1.8l.9-.66L283.8,19.86h14.64a4.9,4.9,0,0,1,4.14,2.1l5.64,10.26,7-12.36h13.08L318.54,38.1A5.19,5.19,0,0,1,317,40l-1.5,1.14,13.8,20.76H313.86a5.47,5.47,0,0,1-4.44-2.46L304,49.56l-6.24,12.3Z"/><path class="cls-1" d="M6.28,8.86l3.17-7h1l3.18,7h-1L9.74,2.42h.4L7.31,8.86ZM7.63,7.11l.27-.8h3.94l.29.8Z"/><path class="cls-1" d="M23.33,8.86v-7h3a3,3,0,0,1,1.79.46,1.52,1.52,0,0,1,.65,1.34A1.54,1.54,0,0,1,28.16,5a2.69,2.69,0,0,1-1.63.45l.18-.3a3,3,0,0,1,1.8.47A1.57,1.57,0,0,1,29.13,7a1.67,1.67,0,0,1-.65,1.41,3.22,3.22,0,0,1-1.95.5Zm1-3.92h1.95a1.87,1.87,0,0,0,1.12-.29,1,1,0,0,0,.38-.85,1,1,0,0,0-.38-.86,1.87,1.87,0,0,0-1.12-.29H24.32Zm0,3.13h2.19a2.1,2.1,0,0,0,1.21-.29,1.05,1.05,0,0,0,.4-.91,1,1,0,0,0-.4-.89,2.1,2.1,0,0,0-1.21-.28H24.32Z"/><path class="cls-1" d="M39.3,8.86v-7h1v5.4l4.14-5.4h.92v7h-1V3.47L40.22,8.86Z"/><path class="cls-1" d="M55.06,8.86l3.17-7h1l3.18,7h-1L58.52,2.42h.4L56.09,8.86Zm1.35-1.75.27-.8h3.94l.29.8Z"/><path class="cls-1" d="M72.11,8.86v-7h1V8H77V1.86h1v7Zm6,1.59V8.6l.24.26H77V8h2.07v2.46Z"/><path class="cls-1" d="M88.9,8.86v-7h1v5.4L94,1.86H95v7H94V3.47L89.82,8.86Z"/><path class="cls-1" d="M108.78,8.94a4,4,0,0,1-1.48-.27,3.65,3.65,0,0,1-1.19-.75,3.73,3.73,0,0,1-.78-1.14,3.74,3.74,0,0,1,0-2.84,3.54,3.54,0,0,1,2-1.89,4,4,0,0,1,1.49-.27,4.14,4.14,0,0,1,1.48.26,3.5,3.5,0,0,1,1.18.75,3.35,3.35,0,0,1,.78,1.15,3.67,3.67,0,0,1,.27,1.42,3.68,3.68,0,0,1-.27,1.43,3.41,3.41,0,0,1-.78,1.14,3.5,3.5,0,0,1-1.18.75A4.14,4.14,0,0,1,108.78,8.94Zm0-.89a2.94,2.94,0,0,0,1.09-.2,2.51,2.51,0,0,0,.86-.56,2.81,2.81,0,0,0,.57-.86,2.68,2.68,0,0,0,.2-1.07,2.68,2.68,0,0,0-.2-1.07,2.88,2.88,0,0,0-.57-.85,2.4,2.4,0,0,0-.86-.57,3,3,0,0,0-2.16,0,2.53,2.53,0,0,0-.87.57,2.88,2.88,0,0,0-.57.85,2.69,2.69,0,0,0-.21,1.07,2.69,2.69,0,0,0,.21,1.07,2.81,2.81,0,0,0,.57.86,2.65,2.65,0,0,0,.87.56A2.91,2.91,0,0,0,108.77,8.05Z"/><path class="cls-1" d="M123.61,8.86h-1v-7h1Zm4.11-3.12h-4.21V4.87h4.21Zm-.09-3.88h1v7h-1Z"/><path class="cls-1" d="M140.31,8.86h-1v-7h1Zm4.11-3.12h-4.21V4.87h4.21Zm-.09-3.88h1v7h-1Z"/><path class="cls-1" d="M159.08,4.3a2.9,2.9,0,0,1,1.91.56,2,2,0,0,1,.67,1.65,2.16,2.16,0,0,1-.72,1.76,3.16,3.16,0,0,1-2,.59H156v-7h1V4.3Zm-.22,3.77a2,2,0,0,0,1.34-.39,1.41,1.41,0,0,0,.46-1.15,1.27,1.27,0,0,0-.46-1.09,2.19,2.19,0,0,0-1.34-.35H157v3Zm3.91.79v-7h1v7Z"/><path class="cls-1" d="M174.44,8.86v-7h1v5.4l4.14-5.4h.92v7h-1V3.47l-4.15,5.39Zm3-7.49A2,2,0,0,1,176.19,1a1.26,1.26,0,0,1-.46-1h.71a.79.79,0,0,0,.28.61,1.17,1.17,0,0,0,.73.21,1.17,1.17,0,0,0,.73-.21.76.76,0,0,0,.28-.61h.7a1.25,1.25,0,0,1-.45,1A2,2,0,0,1,177.45,1.37Z"/><path class="cls-1" d="M9.39,77.65,6.32,71.86H7.39l2.55,5ZM7.23,78a1.73,1.73,0,0,0,1,.1A1.31,1.31,0,0,0,9,77.41l.34-.54.1-.11L12,71.86h1L9.87,77.62a2.86,2.86,0,0,1-.81,1,2,2,0,0,1-1,.37A2.38,2.38,0,0,1,7,78.78Z"/><path class="cls-1" d="M27,76a6.93,6.93,0,0,1-1.14.38,5.1,5.1,0,0,1-1.08.12,2.92,2.92,0,0,1-2-.62,2.23,2.23,0,0,1-.71-1.77V71.86h1V74a1.51,1.51,0,0,0,.48,1.2,2,2,0,0,0,1.34.42A4.31,4.31,0,0,0,26,75.51a5,5,0,0,0,1-.38Zm-.17,2.84v-7h1v7Z"/><path class="cls-1" d="M39.52,78H43.6v.87H38.52v-7h4.94v.87H39.52Zm-.09-3.11H43v.85h-3.6Z"/><path class="cls-1" d="M53.67,78.86v-7H59v.85H54.66v2h2.18a3,3,0,0,1,1.9.52,1.81,1.81,0,0,1,.65,1.51,1.87,1.87,0,0,1-.7,1.57,3.2,3.2,0,0,1-2,.55Zm1-.79h2A2.22,2.22,0,0,0,58,77.74a1.12,1.12,0,0,0,.44-1c0-.85-.58-1.27-1.76-1.27h-2Z"/><path class="cls-1" d="M70.48,78.86h-1v-7h1Zm4.11-3.12H70.38v-.87h4.21Zm-.09-3.88h1v7h-1Z"/><path class="cls-1" d="M89.25,74.3a2.9,2.9,0,0,1,1.91.56,2,2,0,0,1,.67,1.65,2.16,2.16,0,0,1-.72,1.76,3.16,3.16,0,0,1-2,.59H86.18v-7h1V74.3ZM89,78.07a2,2,0,0,0,1.34-.39,1.41,1.41,0,0,0,.46-1.15,1.27,1.27,0,0,0-.46-1.09A2.19,2.19,0,0,0,89,75.09H87.17v3Zm3.91.79v-7h1v7Z"/><path class="cls-1" d="M104.61,78.86v-7h1v5.4l4.14-5.4h.92v7h-1V73.47l-4.15,5.39Zm3-7.49a2,2,0,0,1-1.26-.36,1.26,1.26,0,0,1-.46-1h.71a.79.79,0,0,0,.28.61,1.37,1.37,0,0,0,1.46,0,.76.76,0,0,0,.28-.61h.7a1.25,1.25,0,0,1-.45,1A2,2,0,0,1,107.62,71.37Z"/><path class="cls-1" d="M132.53,78.86v-7h1V78h3.9V71.86h1v7Zm6,1.59V78.6l.24.26h-1.38V78h2.07v2.46Z"/><path class="cls-1" d="M150.32,78h4.08v.87h-5.08v-7h4.94v.87h-3.94Zm-.09-3.11h3.6v.85h-3.6Z"/><path class="cls-1" d="M165.47,78.86h-1v-7h1Zm4.11-3.12h-4.21v-.87h4.21Zm-.09-3.88h1v7h-1Z"/><path class="cls-1" d="M182.6,78.86V72.47l.25.26h-2.64v-.87H186v.87h-2.64l.24-.26v6.39Z"/><path class="cls-1" d="M195.7,78.86v-7h2.73a3.86,3.86,0,0,1,1.57.29,2.13,2.13,0,0,1,1,.84,2.63,2.63,0,0,1,0,2.62,2.25,2.25,0,0,1-1,.84,3.86,3.86,0,0,1-1.57.29h-2.18l.45-.47v2.59Zm1-2.49-.45-.5h2.15a2.27,2.27,0,0,0,1.46-.41,1.62,1.62,0,0,0,0-2.32,2.27,2.27,0,0,0-1.46-.41h-2.15l.45-.5Z"/></g></g></svg>