<svg xmlns="http://www.w3.org/2000/svg" viewBox="0 0 1920 1080"><defs><style>.cls-1{fill:#fff;}.cls-2,.cls-5{fill:#83b5c6;}.cls-2,.cls-3{opacity:0.5;}.cls-4{fill:#9acddb;}.cls-6{fill:#a1d6e2;}.cls-7{fill:#96c9d6;}</style></defs><g id="Слой_2" data-name="Слой 2"><g id="Слой_1-2" data-name="Слой 1"><rect class="cls-1" width="1920" height="1080"/><path class="cls-2" d="M1793,838.65a118.63,118.63,0,0,0-92.17-94.15,96.51,96.51,0,0,0-181.49-39.38,118.54,118.54,0,0,0-215.33,8A175.53,175.53,0,0,0,1038.39,671a118.65,118.65,0,0,0-123.76-33.49A215.65,215.65,0,0,0,756.9,629,118,118,0,0,0,535,685q0,5,.41,9.82a118.52,118.52,0,0,0-178.22,47.55A190,190,0,0,0,284.5,728C179.29,728,94,813.29,94,918.5a190.55,190.55,0,0,0,8.54,56.58A101.16,101.16,0,0,0,54.6,1080H1754.44a190.19,190.19,0,0,0,25.86-44A101,101,0,0,0,1793,838.65Z"/><g class="cls-3"><path class="cls-4" d="M454.8,1080c-.27-2.76-.58-5.51-.94-8.23q2.37,4.15,4.86,8.23H892.28c1.2-2,2.38-3.93,3.54-5.93q1.18,3,2.44,5.93h342.47q3.63-8.52,6.63-17.44A195.3,195.3,0,0,0,1268,1080h605.91a132.41,132.41,0,0,0,3.13-28.72c0-63.95-45.22-115.8-101-115.8a89.54,89.54,0,0,0-35.86,7.52c-20.72-39.53-58.48-66-101.64-66a106,106,0,0,0-54,14.88,117.49,117.49,0,0,0-24.44-17.34c-9.37-110.59-90.67-197-189.59-197-39.84,0-76.82,14-107.39,38-17.29-15.88-39.23-25.39-63.11-25.39-44.65,0-82.53,33.23-95.87,79.28a168,168,0,0,0-92.51,6.67c-21.73-30.74-54.92-50.4-92.12-50.4a104.34,104.34,0,0,0-28.9,4.07C842.6,653,764.15,603,675.5,603,584.9,603,505,655.24,457.29,734.86h-.79c-62.93,0-114.39,56.24-118.26,127.27h-.74c-25.06,0-48.29,8.92-67.44,24.14-1.51,0-3-.07-4.56-.07-57,0-108.12,28.7-143,74.17A88.92,88.92,0,0,0,104,958.41c-55.78,0-101,51.85-101,115.8,0,1.94,0,3.87.13,5.79Z"/></g><g class="cls-3"><path class="cls-5" d="M1904.51,1080a101.13,101.13,0,0,0-85-23.31,190,190,0,0,0-143-64.69q-2.3,0-4.56.06A117.92,117.92,0,0,0,1604.5,971h-.74A118.5,118.5,0,0,0,1485.5,860h-.79a264.52,264.52,0,0,0-433.31-4.45,118.62,118.62,0,0,0-121,40.4,191.61,191.61,0,0,0-92.51-5.81,101,101,0,0,0-159-47A189.57,189.57,0,0,0,571.5,810c-98.92,0-180.22,75.39-189.59,171.85A118.35,118.35,0,0,0,357.47,997a118.57,118.57,0,0,0-155.61,44.58A101.08,101.08,0,0,0,81.94,1080Z"/></g><g class="cls-3"><path class="cls-6" d="M1914.3,1080a104.66,104.66,0,0,0-35.36-9.53l-.75,0c2.34-71.1-44-131.6-106.73-137.08l-.78-.06c-40.56-83.47-115.65-142.47-205.91-150.35-88.31-7.72-170.82,35.27-225.31,107.55A104.35,104.35,0,0,0,1311,883.9c-37.06-3.24-71.84,13.46-96.16,42.19a168.13,168.13,0,0,0-91.58-14.69c-9.28-47-44.12-83.44-88.6-87.32-23.79-2.08-46.47,5.48-65.08,19.8-28.37-26.55-64-43.74-103.68-47.21-98.54-8.61-187,70.43-206,179.78a117.36,117.36,0,0,0-25.85,15.14,106,106,0,0,0-52.47-19.51c-43-3.76-82.92,19.31-107,56.89a89.31,89.31,0,0,0-35.06-10.61c-41.43-3.62-79.51,22-98.52,61.64Z"/></g><g class="cls-3"><path class="cls-7" d="M1862.27,1080a101.05,101.05,0,0,0-118.5-16.2,118.57,118.57,0,0,0-160.2-23.22,118.45,118.45,0,0,0-26.25-11.69c-22.28-94.32-113-158.08-211-144.76a189.67,189.67,0,0,0-102,47.31,101,101,0,0,0-151.2,68,191.5,191.5,0,0,0-90.89,18.22,118.61,118.61,0,0,0-125.36-23.74,264.52,264.52,0,0,0-428.76,62.77l-.78.1A117.93,117.93,0,0,0,391.42,1080Z"/></g></g></g></svg>